<svg xmlns="http://www.w3.org/2000/svg" xml:space="preserve" id="icon" viewBox="0 0 512 512"><path d="M512 255.999C512 133.046 412.344 33.39 289.391 33.39c-119.929 0-217.675 94.819-222.411 213.585l-28.978-28.978c-8.693-8.693-22.788-8.693-31.482 0-8.693 8.693-8.693 22.788 0 31.482l66.783 66.783c8.693 8.693 22.788 8.693 31.482 0l66.783-66.783c8.693-8.693 8.693-22.788 0-31.482-8.693-8.693-22.788-8.693-31.482 0l-28.53 28.53c4.923-93.959 82.649-168.615 177.836-168.615 98.364 0 178.087 79.723 178.087 178.087 0 .469.019.933.048 1.394-.037.476-.084.949-.092 1.435a178.186 178.186 0 0 1-4.964 39.201c-2.872 11.954 4.497 23.975 16.451 26.847 1.759.423 3.495.623 5.231.623 10.04 0 19.144-6.856 21.615-17.052 3.851-15.939 5.921-32.39 6.189-48.929a22.4 22.4 0 0 0-.04-1.643c.05-.619.083-1.243.083-1.876zM458.908 365.035c-9.55-7.769-23.552-6.278-31.299 3.272A178.062 178.062 0 0 1 399.471 396c-9.661 7.591-11.309 21.593-3.74 31.254a22.256 22.256 0 0 0 17.519 8.504c4.808 0 9.683-1.558 13.757-4.764a223.13 223.13 0 0 0 35.172-34.638c7.748-9.55 6.279-23.574-3.271-31.321zM328.659 429.747a179.582 179.582 0 0 1-39.268 4.341c-12.31 0-22.261 9.973-22.261 22.261 0 12.288 9.951 22.261 22.261 22.261 16.54 0 33.035-1.825 49.041-5.432 11.999-2.694 19.523-14.603 16.829-26.602s-14.67-19.478-26.602-16.829z"/></svg>